<svg xmlns="http://www.w3.org/2000/svg" viewBox="0 0 280 140" fill="none" aria-label="Cranes Consulting">

  <!-- Main bird body silhouette (flying crane in profile, neck and beak forward) -->
  <path fill="#0F2444" d="
    M 32 50
    L 95 18
    L 138 20
    L 155 30
    L 175 33
    L 195 28
    L 210 26
    L 215 30
    L 208 38
    L 188 46
    L 162 50
    L 138 56
    L 115 68
    L 90 86
    L 70 100
    L 58 118
    L 72 120
    L 82 110
    L 90 100
    L 88 90
    L 72 78
    L 50 68
    L 28 55
    Z
  "/>

  <!-- Front leg / foot, integrated as a small projection -->
  <path fill="#0F2444" d="
    M 100 88
    L 105 118
    L 116 120
    L 113 108
    L 108 92
    Z
  "/>

  <!-- Wing notch (creates the fold / depth effect) -->
  <path fill="#FAFAF7" d="
    M 78 23
    L 85 55
    L 95 23
    Z
  "/>

  <!-- Amber beak -->
  <path fill="#E8A838" d="
    M 212 28
    L 244 22
    L 215 40
    Z
  "/>

</svg>
